<svg width="43" height="42" viewBox="0 0 43 42" fill="none" xmlns="http://www.w3.org/2000/svg">
<g clip-path="url(#clip0_183_439)">
<path fill-rule="evenodd" clip-rule="evenodd" d="M18.789 20.6973V30.7819C18.789 30.9249 18.9045 31.046 19.053 31.046H22.7997C22.9427 31.046 23.0638 30.9304 23.0638 30.7819V20.5323H25.7816C25.9191 20.5323 26.0292 20.4277 26.0457 20.2902L26.3043 17.2037C26.3153 17.0497 26.1942 16.9177 26.0402 16.9177H23.0638V14.728C23.0638 14.2163 23.4819 13.7982 23.9935 13.7982H26.0842C26.2272 13.7982 26.3483 13.6827 26.3483 13.5341V10.4477C26.3483 10.3046 26.2327 10.1836 26.0842 10.1836H22.5466C20.4725 10.1836 18.789 11.8671 18.789 13.9412V16.9177H16.9184C16.7753 16.9177 16.6543 17.0332 16.6543 17.1817V20.2682C16.6543 20.4112 16.7698 20.5323 16.9184 20.5323H18.789V20.6973Z" fill="white"/>
<path d="M21.5015 0C10.1351 0 0.886719 9.24833 0.886719 20.6148C0.886719 31.9813 10.1351 41.2296 21.5015 41.2296C32.868 41.2296 42.1163 31.9813 42.1163 20.6148C42.1163 9.24833 32.868 0 21.5015 0ZM39.47 20.6148C39.47 30.5233 31.4101 38.5833 21.5015 38.5833C11.593 38.5833 3.52753 30.5233 3.52753 20.6148C3.52753 10.7063 11.593 2.64631 21.5015 2.64631C31.4101 2.64631 39.47 10.7063 39.47 20.6148Z" fill="white"/>
</g>
<defs>
<clipPath id="clip0_183_439">
<rect width="41.2296" height="41.2296" fill="white" transform="translate(0.886719)"/>
</clipPath>
</defs>
</svg>
