<svg width="31" height="31" viewBox="0 0 31 31" fill="none" xmlns="http://www.w3.org/2000/svg">
<g clip-path="url(#clip0_202_206)">
<path fill-rule="evenodd" clip-rule="evenodd" d="M13.4628 15.5467V23.1217C13.4628 23.2292 13.5496 23.3201 13.6612 23.3201H16.4755C16.5829 23.3201 16.6738 23.2333 16.6738 23.1217V15.4228H18.7153C18.8186 15.4228 18.9013 15.3443 18.9137 15.2409L19.1079 12.9226C19.1162 12.8069 19.0252 12.7077 18.9095 12.7077H16.6738V11.0629C16.6738 10.6786 16.9879 10.3645 17.3722 10.3645H18.9426C19.05 10.3645 19.141 10.2777 19.141 10.1661V7.84778C19.141 7.74033 19.0542 7.64941 18.9426 7.64941H16.2854C14.7274 7.64941 13.4628 8.91398 13.4628 10.472V12.7077H12.0577C11.9503 12.7077 11.8594 12.7945 11.8594 12.906V15.2244C11.8594 15.3319 11.9462 15.4228 12.0577 15.4228H13.4628V15.5467Z" fill="black"/>
<path d="M15.5004 0C6.96247 0 0.015625 6.94684 0.015625 15.4847C0.015625 24.0226 6.96247 30.9695 15.5004 30.9695C24.0382 30.9695 30.9851 24.0226 30.9851 15.4847C30.9851 6.94684 24.0382 0 15.5004 0ZM28.9973 15.4847C28.9973 22.9275 22.9431 28.9817 15.5004 28.9817C8.0576 28.9817 1.99926 22.9275 1.99926 15.4847C1.99926 8.04197 8.0576 1.98776 15.5004 1.98776C22.9431 1.98776 28.9973 8.04197 28.9973 15.4847Z" fill="black"/>
</g>
<defs>
<clipPath id="clip0_202_206">
<rect width="30.9695" height="30.9695" fill="white" transform="translate(0.015625)"/>
</clipPath>
</defs>
</svg>
