<svg width="42" height="42" viewBox="0 0 42 42" fill="none" xmlns="http://www.w3.org/2000/svg">
<g clip-path="url(#clip0_183_442)">
<path d="M27.6017 14.9318C27.6017 15.614 27.0515 16.1641 26.3693 16.1641C25.6871 16.1641 25.137 15.6085 25.137 14.9318C25.137 14.2551 25.6926 13.6994 26.3693 13.6994C27.046 13.6994 27.6017 14.2551 27.6017 14.9318ZM26.0612 20.4665C26.0612 23.3273 23.734 25.6545 20.8731 25.6545C18.0123 25.6545 15.6851 23.3273 15.6851 20.4665C15.6851 17.6056 18.0123 15.2784 20.8731 15.2784C23.734 15.2784 26.0612 17.6056 26.0612 20.4665ZM24.1962 20.4665C24.1962 18.6344 22.7052 17.1434 20.8731 17.1434C19.0411 17.1434 17.5501 18.6344 17.5501 20.4665C17.5501 22.2985 19.0411 23.7895 20.8731 23.7895C22.7052 23.7895 24.1962 22.2985 24.1962 20.4665ZM31.3759 16.2962C31.3759 12.8026 28.5425 9.96924 25.0489 9.96924H16.4168C12.9232 9.96924 10.0898 12.8026 10.0898 16.2962V24.9283C10.0898 28.4219 12.9232 31.2553 16.4168 31.2553H25.0489C28.5425 31.2553 31.3759 28.4219 31.3759 24.9283V16.2962ZM29.2962 24.8348C29.2962 27.2335 27.3486 29.1811 24.9499 29.1811H16.5048C14.1061 29.1811 12.1585 27.2335 12.1585 24.8348V16.3897C12.1585 13.991 14.1061 12.0434 16.5048 12.0434H24.9499C27.3486 12.0434 29.2962 13.991 29.2962 16.3897V24.8348Z" fill="white"/>
<path d="M20.73 0C9.36357 0 0.115234 9.24833 0.115234 20.6148C0.115234 31.9813 9.36357 41.2296 20.73 41.2296C32.0965 41.2296 41.3449 31.9813 41.3449 20.6148C41.3449 9.24833 32.0965 0 20.73 0ZM20.73 38.5833C10.8215 38.5833 2.76154 30.5233 2.76154 20.6148C2.76154 10.7063 10.8215 2.64631 20.73 2.64631C30.6386 2.64631 38.704 10.7063 38.704 20.6148C38.704 30.5233 30.6441 38.5833 20.73 38.5833Z" fill="white"/>
</g>
<defs>
<clipPath id="clip0_183_442">
<rect width="41.2296" height="41.2296" fill="white" transform="translate(0.115234)"/>
</clipPath>
</defs>
</svg>
