<svg width="31" height="31" viewBox="0 0 31 31" fill="none" xmlns="http://www.w3.org/2000/svg">
<g clip-path="url(#clip0_202_209)">
<path d="M20.6774 11.2159C20.6774 11.7283 20.2641 12.1416 19.7517 12.1416C19.2393 12.1416 18.826 11.7242 18.826 11.2159C18.826 10.7075 19.2434 10.2902 19.7517 10.2902C20.26 10.2902 20.6774 10.7075 20.6774 11.2159ZM19.5203 15.3732C19.5203 17.5222 17.7722 19.2702 15.6233 19.2702C13.4743 19.2702 11.7263 17.5222 11.7263 15.3732C11.7263 13.2243 13.4743 11.4762 15.6233 11.4762C17.7722 11.4762 19.5203 13.2243 19.5203 15.3732ZM18.1193 15.3732C18.1193 13.9971 16.9994 12.8771 15.6233 12.8771C14.2471 12.8771 13.1272 13.9971 13.1272 15.3732C13.1272 16.7494 14.2471 17.8693 15.6233 17.8693C16.9994 17.8693 18.1193 16.7494 18.1193 15.3732ZM23.5123 12.2407C23.5123 9.61655 21.3841 7.48828 18.7599 7.48828H12.2759C9.65171 7.48828 7.52344 9.61655 7.52344 12.2407V18.7247C7.52344 21.3489 9.65171 23.4772 12.2759 23.4772H18.7599C21.3841 23.4772 23.5123 21.3489 23.5123 18.7247V12.2407ZM21.9502 18.6545C21.9502 20.4563 20.4873 21.9192 18.6855 21.9192H12.342C10.5402 21.9192 9.07728 20.4563 9.07728 18.6545V12.311C9.07728 10.5092 10.5402 9.04626 12.342 9.04626H18.6855C20.4873 9.04626 21.9502 10.5092 21.9502 12.311V18.6545Z" fill="black"/>
<path d="M15.516 0C6.97809 0 0.03125 6.94684 0.03125 15.4847C0.03125 24.0226 6.97809 30.9695 15.516 30.9695C24.0539 30.9695 31.0007 24.0226 31.0007 15.4847C31.0007 6.94684 24.0539 0 15.516 0ZM15.516 28.9817C8.07322 28.9817 2.01901 22.9275 2.01901 15.4847C2.01901 8.04197 8.07322 1.98776 15.516 1.98776C22.9587 1.98776 29.0171 8.04197 29.0171 15.4847C29.0171 22.9275 22.9629 28.9817 15.516 28.9817Z" fill="black"/>
</g>
<defs>
<clipPath id="clip0_202_209">
<rect width="30.9695" height="30.9695" fill="white" transform="translate(0.03125)"/>
</clipPath>
</defs>
</svg>
