<svg width="31" height="31" viewBox="0 0 31 31" fill="none" xmlns="http://www.w3.org/2000/svg">
<g clip-path="url(#clip0_202_203)">
<path d="M23.7536 13.4431C23.7536 11.4471 22.1336 9.82715 20.1376 9.82715H10.8269C8.8309 9.82715 7.21094 11.4471 7.21094 13.4431V17.5261C7.21094 19.5221 8.8309 21.1421 10.8269 21.1421H20.1376C22.1336 21.1421 23.7536 19.5221 23.7536 17.5261V13.4431ZM18.6375 15.5921L14.476 17.646C14.3148 17.7327 13.7445 17.617 13.7445 17.4311V13.22C13.7445 13.034 14.319 12.9142 14.4801 13.0092L18.4598 15.1706C18.6251 15.2656 18.8069 15.5053 18.6416 15.5962L18.6375 15.5921Z" fill="black"/>
<path d="M15.4847 0C6.94684 0 0 6.94684 0 15.4847C0 24.0226 6.94684 30.9695 15.4847 30.9695C24.0226 30.9695 30.9695 24.0226 30.9695 15.4847C30.9695 6.94684 24.0226 0 15.4847 0ZM15.4847 28.9817C8.04197 28.9817 1.98363 22.9275 1.98363 15.4806C1.98363 8.03371 8.04197 1.98776 15.4847 1.98776C22.9275 1.98776 28.9858 8.04197 28.9858 15.4847C28.9858 22.9275 22.9316 28.9858 15.4847 28.9858V28.9817Z" fill="black"/>
</g>
<defs>
<clipPath id="clip0_202_203">
<rect width="30.9695" height="30.9695" fill="white"/>
</clipPath>
</defs>
</svg>
