<svg width="42" height="42" viewBox="0 0 42 42" fill="none" xmlns="http://www.w3.org/2000/svg">
<g clip-path="url(#clip0_183_436)">
<path d="M32.2791 17.897C32.2791 15.2397 30.1224 13.083 27.4651 13.083H15.0698C12.4125 13.083 10.2559 15.2397 10.2559 17.897V23.3326C10.2559 25.99 12.4125 28.1466 15.0698 28.1466H27.4651C30.1224 28.1466 32.2791 25.99 32.2791 23.3326V17.897ZM25.468 20.7579L19.9278 23.4922C19.7133 23.6077 18.954 23.4537 18.954 23.2061V17.5999C18.954 17.3523 19.7188 17.1928 19.9333 17.3193L25.2314 20.1967C25.4515 20.3232 25.6936 20.6423 25.4735 20.7634L25.468 20.7579Z" fill="white"/>
<path d="M21.2711 0C9.90458 0 0.65625 9.24833 0.65625 20.6148C0.65625 31.9813 9.90458 41.2296 21.2711 41.2296C32.6375 41.2296 41.8859 31.9813 41.8859 20.6148C41.8859 9.24833 32.6375 0 21.2711 0ZM21.2711 38.5833C11.3625 38.5833 3.29706 30.5233 3.29706 20.6093C3.29706 10.6953 11.3625 2.64631 21.2711 2.64631C31.1796 2.64631 39.2451 10.7063 39.2451 20.6148C39.2451 30.5233 31.1851 38.5888 21.2711 38.5888V38.5833Z" fill="white"/>
</g>
<defs>
<clipPath id="clip0_183_436">
<rect width="41.2296" height="41.2296" fill="white" transform="translate(0.65625)"/>
</clipPath>
</defs>
</svg>
